HIERARCHY
ROOT SpineBase
{
  OFFSET 0.000000 0.000000 0.000000
  CHANNELS 6 Xposition Yposition Zposition Zrotation Xrotation Yrotation
  JOINT SpineMid
  {
    OFFSET 0.000000 30.281941 0.000000
    CHANNELS 3 Zrotation Xrotation Yrotation
    JOINT SpineShoulder
    {
      OFFSET 0.007981 22.547762 -0.797264
      CHANNELS 3 Zrotation Xrotation Yrotation
      JOINT Neck
      {
        OFFSET -0.007038 7.484312 -0.598708
        CHANNELS 3 Zrotation Xrotation Yrotation
        JOINT Head
        {
          OFFSET -7.465347 11.683515 3.171077
          CHANNELS 3 Zrotation Xrotation Yrotation
          End Site
          {
            OFFSET 0 0 0
          }
        }
      }
      JOINT ShoulderLeft
      {
        OFFSET -9.584992 -4.173182 11.582394
        CHANNELS 3 Zrotation Xrotation Yrotation
        JOINT ElbowLeft
        {
          OFFSET -0.947953 -25.366395 -3.348966
          CHANNELS 3 Zrotation Xrotation Yrotation
          JOINT WristLeft
          {
            OFFSET 1.605387 -15.168305 -12.266495
            CHANNELS 3 Zrotation Xrotation Yrotation
            JOINT HandLeft
            {
              OFFSET 1.367317 -4.366015 -5.661938
              CHANNELS 3 Zrotation Xrotation Yrotation
              JOINT HandTipLeft
              {
                OFFSET 1.154537 -1.095952 0.414346
                CHANNELS 3 Zrotation Xrotation Yrotation
                End Site
                {
                  OFFSET 0 0 0
                }
              }
              JOINT ThumbLeft
              {
                OFFSET -3.149995 1.337167 -3.106493
                CHANNELS 3 Zrotation Xrotation Yrotation
                End Site
                {
                  OFFSET 0 0 0
                }
              }
            }
          }
        }
      }
      JOINT ShoulderRight
      {
        OFFSET 7.653742 -2.647106 -13.500756
        CHANNELS 3 Zrotation Xrotation Yrotation
        JOINT ElbowRight
        {
          OFFSET 0.884853 -22.379507 -6.783709
          CHANNELS 3 Zrotation Xrotation Yrotation
          JOINT WristRight
          {
            OFFSET -15.493856 -15.176302 5.355906
            CHANNELS 3 Zrotation Xrotation Yrotation
            JOINT HandRight
            {
              OFFSET -3.522887 -4.694718 3.570808
              CHANNELS 3 Zrotation Xrotation Yrotation
              JOINT HandTipRight
              {
                OFFSET -3.564949 -2.919680 0.950967
                CHANNELS 3 Zrotation Xrotation Yrotation
                End Site
                {
                  OFFSET 0 0 0
                }
              }
              JOINT ThumbRight
              {
                OFFSET 1.780544 -2.923383 -1.990513
                CHANNELS 3 Zrotation Xrotation Yrotation
                End Site
                {
                  OFFSET 0 0 0
                }
              }
            }
          }
        }
      }
    }
  }
  JOINT HipLeft
  {
    OFFSET -3.564005 -0.098288 1.707922
    CHANNELS 3 Zrotation Xrotation Yrotation
    JOINT KneeLeft
    {
      OFFSET 2.843210 -30.654697 2.134955
      CHANNELS 3 Zrotation Xrotation Yrotation
      JOINT AnkleLeft
      {
        OFFSET 3.217904 -29.695745 5.308153
        CHANNELS 3 Zrotation Xrotation Yrotation
        JOINT FootLeft
        {
          OFFSET -3.668598 -7.185895 -2.455623
          CHANNELS 3 Zrotation Xrotation Yrotation
          End Site
          {
            OFFSET 0 0 0
          }
        }
      }
    }
  }
  JOINT HipRight
  {
    OFFSET 3.427813 2.350483 -8.724389
    CHANNELS 3 Zrotation Xrotation Yrotation
    JOINT KneeRight
    {
      OFFSET 10.405701 -24.060263 -4.894249
      CHANNELS 3 Zrotation Xrotation Yrotation
      JOINT AnkleRight
      {
        OFFSET 9.613937 -34.056798 5.262603
        CHANNELS 3 Zrotation Xrotation Yrotation
        JOINT FootRight
        {
          OFFSET -1.606652 -7.908838 -4.050634
          CHANNELS 3 Zrotation Xrotation Yrotation
          End Site
          {
            OFFSET 0 0 0
          }
        }
      }
    }
  }
}
MOTION
Frames: 14
Frame Time: 0.033333
10.713314 58.793059 350.423724 32.510715 -1.937955 37.172471 -0.214972 0.321184 -35.470685 -0.633689 0.202806 1.369544 -11.545465 0.768514 -8.174199 0.000000 0.000000 0.000000 -11.126948 -2.457877 -4.418509 -20.677933 3.729872 3.264080 -8.096907 -20.437923 3.474931 23.630668 53.444918 26.144956 0.000000 0.000000 0.000000 0.000000 0.000000 0.000000 21.191272 5.057329 -21.854699 -53.085199 -23.590240 11.689616 3.118574 2.239559 -2.575256 0.338044 -38.598754 43.920842 0.000000 0.000000 0.000000 0.000000 0.000000 0.000000 -56.697026 36.632822 -18.761925 39.537730 2.131625 4.503328 -6.057574 11.814235 -10.694348 0.000000 0.000000 0.000000 -4.184914 61.631999 -26.158198 2.249689 -41.481944 -16.935041 -20.838762 22.828100 4.486276 0.000000 0.000000 0.000000
9.394345 57.726199 352.190839 33.573901 -1.408174 37.294941 0.275550 0.548806 -35.834266 -0.479844 0.248679 1.425253 -10.789464 -0.975501 -8.989414 0.000000 0.000000 0.000000 -10.067468 0.125589 -5.599835 -22.928938 -0.253087 3.003769 -5.892324 -15.946220 2.237929 17.093120 49.977640 31.488182 0.000000 0.000000 0.000000 0.000000 0.000000 0.000000 18.648056 2.318304 -20.261105 -53.907727 -22.281559 12.329704 4.749204 2.564265 -2.506158 -0.700309 -38.013753 42.562723 0.000000 0.000000 0.000000 0.000000 0.000000 0.000000 -55.647461 38.402344 -19.089729 40.412971 2.070411 5.610991 -6.794049 3.936678 -9.102790 0.000000 0.000000 0.000000 3.530494 61.400093 -32.184345 -2.192718 -42.727848 -18.416949 -21.867804 21.673081 4.368055 0.000000 0.000000 0.000000
7.691309 57.174579 353.541786 34.677294 -0.258481 41.388634 0.109477 0.547177 -40.204287 -0.486743 0.262911 1.462252 -10.588574 -2.713245 -9.464921 0.000000 0.000000 0.000000 -9.342830 1.422736 -6.372343 -26.794435 -6.097795 4.328253 -6.362959 -12.307449 4.986981 17.682984 46.374863 25.566399 0.000000 0.000000 0.000000 0.000000 0.000000 0.000000 18.046424 1.790015 -20.006016 -57.812747 -24.813681 11.044822 11.985358 8.396702 -4.704417 -11.520417 -45.660215 39.110118 0.000000 0.000000 0.000000 0.000000 0.000000 0.000000 -54.178043 43.601801 -22.215304 43.778949 2.096992 7.147829 -7.515159 -1.357055 -9.188523 0.000000 0.000000 0.000000 13.853785 56.781921 -43.786467 -5.670016 -40.597110 -17.799370 -23.538578 20.955177 4.202979 0.000000 0.000000 0.000000
5.787810 56.970120 354.195714 35.192153 0.870127 45.549726 0.208895 0.403344 -44.684751 -0.398289 0.339354 1.474893 -9.808852 -4.212325 -9.776756 0.000000 0.000000 0.000000 -9.765692 0.739973 -6.454849 -26.613264 -5.528737 3.957013 -6.587105 -13.808785 4.562850 23.270701 47.155331 24.411310 0.000000 0.000000 0.000000 0.000000 0.000000 0.000000 16.936428 1.196496 -19.431840 -56.505641 -25.016198 11.597007 14.684432 11.620409 -6.006291 -15.353278 -37.170312 27.504694 0.000000 0.000000 0.000000 0.000000 0.000000 0.000000 -51.784415 47.948289 -26.280770 45.157655 1.732641 8.025495 -9.508996 -0.119988 -10.432864 0.000000 0.000000 0.000000 17.052936 49.269762 -50.259300 -6.730878 -35.146164 -14.474643 -27.866125 20.922070 4.910494 0.000000 0.000000 0.000000
4.006437 57.222846 354.816069 35.537858 1.648639 49.289067 0.274440 0.486341 -48.698554 -0.413628 0.373205 1.475390 -10.373621 -5.572206 -9.819185 0.000000 0.000000 0.000000 -11.436207 -2.104774 -5.727024 -22.705469 1.090843 2.390701 -4.193903 -23.265310 -3.398957 16.435945 57.732958 36.570047 0.000000 0.000000 0.000000 0.000000 0.000000 0.000000 14.533556 -1.499528 -17.557092 -49.820550 -19.430911 14.047444 13.790567 12.866942 -5.379384 -4.234656 -26.232632 23.856270 0.000000 0.000000 0.000000 0.000000 0.000000 0.000000 -44.484481 49.887344 -33.296394 41.089627 0.418715 7.894383 -9.619486 5.037801 -12.626506 0.000000 0.000000 0.000000 15.735683 41.961590 -53.792831 -5.668719 -27.291585 -9.645146 -29.818437 20.132219 3.169259 0.000000 0.000000 0.000000
2.317231 57.423654 355.141218 35.748704 2.708059 49.684953 0.214015 0.457493 -49.414187 -0.474362 0.419503 1.461379 -12.030767 -7.173521 -9.745667 0.000000 0.000000 0.000000 -11.578174 -3.187620 -5.628705 -18.128208 8.129740 -0.964707 0.649449 -25.868171 -8.707411 -4.205634 61.093703 63.424042 0.000000 0.000000 0.000000 0.000000 0.000000 0.000000 11.577252 -3.173209 -15.916606 -40.863059 -12.795522 14.908367 10.213407 11.937512 -2.932327 0.613735 -16.618342 13.810374 0.000000 0.000000 0.000000 0.000000 0.000000 0.000000 -43.685997 49.457102 -34.909235 40.910056 0.343996 7.969968 -7.054605 1.624456 -12.135475 0.000000 0.000000 0.000000 12.564217 36.922803 -53.512761 -5.295088 -19.383878 -6.090037 -28.605938 19.007554 -0.960391 0.000000 0.000000 0.000000
0.950399 58.067047 355.126909 35.805143 3.856734 48.389381 0.296720 0.386933 -48.490722 -0.456606 0.497599 1.443797 -11.994814 -9.610435 -10.131145 0.000000 0.000000 0.000000 -11.783936 -4.485342 -5.516852 -12.139644 15.866824 -5.684127 6.537392 -30.990561 -12.497754 -21.135618 62.747111 85.568242 0.000000 0.000000 0.000000 0.000000 0.000000 0.000000 11.857174 -4.486441 -15.369161 -32.386144 -5.811528 14.621169 4.714153 8.948691 2.333433 3.801409 -11.691566 5.930616 0.000000 0.000000 0.000000 0.000000 0.000000 0.000000 -42.764537 44.560390 -36.042071 37.145300 2.411026 6.726882 -6.387106 1.520197 -12.422830 0.000000 0.000000 0.000000 7.667724 33.225495 -51.116457 -4.717799 -11.001221 -3.205429 -25.601167 11.640030 -5.635134 0.000000 0.000000 0.000000
0.257736 59.116608 354.818593 35.894653 5.098402 44.347162 0.411148 0.274240 -44.840023 -0.485969 0.488851 1.452270 -13.468050 -11.129994 -10.072306 0.000000 0.000000 0.000000 -12.052453 -5.771759 -5.416855 -5.621254 22.594927 -11.109914 15.840971 -33.642498 -15.390542 -43.976222 56.659846 108.743281 0.000000 0.000000 0.000000 0.000000 0.000000 0.000000 14.534592 -5.491105 -15.505583 -25.305072 0.810509 13.069671 -4.649897 3.781694 6.991138 7.497840 -9.397243 2.601606 0.000000 0.000000 0.000000 0.000000 0.000000 0.000000 -48.088874 39.875919 -32.135677 37.298642 4.026006 5.959864 -6.135310 1.001510 -11.650229 0.000000 0.000000 0.000000 1.720147 31.085188 -45.775270 -3.041758 -5.756455 -1.101570 -23.145390 9.129672 -9.066081 0.000000 0.000000 0.000000
-1.032132 60.055565 354.844644 35.471870 6.288882 39.961162 0.417440 0.215311 -40.806669 -0.548764 0.483248 1.426304 -14.084031 -12.369410 -9.906156 0.000000 0.000000 0.000000 -11.643667 -6.980674 -5.239053 0.369211 27.479551 -16.280576 23.018814 -33.437794 -15.670410 -47.144787 46.253225 108.441788 0.000000 0.000000 0.000000 0.000000 0.000000 0.000000 17.415954 -5.995828 -15.540277 -19.672277 5.790120 10.365337 -14.334241 -6.854564 13.987048 11.028798 -4.921292 -2.009437 0.000000 0.000000 0.000000 0.000000 0.000000 0.000000 -47.670463 32.558690 -31.086600 32.823721 5.245414 4.849790 -8.536518 8.011891 -13.522867 0.000000 0.000000 0.000000 -1.926840 26.828818 -41.040120 -3.164911 -1.002509 0.694465 -20.292984 7.603005 -12.302383 0.000000 0.000000 0.000000
-1.791705 61.127122 355.069550 35.201303 7.013370 32.329074 0.282252 0.396701 -33.430000 -0.601210 0.482069 1.396759 -14.437695 -13.392865 -9.853259 0.000000 0.000000 0.000000 -11.157623 -7.813107 -5.081828 5.003962 30.533270 -20.362569 27.713187 -31.299048 -15.734033 -43.581143 38.068712 103.393501 0.000000 0.000000 0.000000 0.000000 0.000000 0.000000 16.588306 -6.117751 -14.915173 -12.700012 9.941410 6.976887 -20.440625 -24.928742 26.755787 15.678493 4.258024 -13.870384 0.000000 0.000000 0.000000 0.000000 0.000000 0.000000 -47.444319 22.739128 -27.305192 27.091720 6.734922 3.687399 -8.057636 10.402414 -13.628333 0.000000 0.000000 0.000000 -5.759886 24.518093 -32.825896 -2.121958 1.018641 1.769674 -16.083110 7.073333 -15.646579 0.000000 0.000000 0.000000
-2.544204 62.714480 355.296252 35.037242 7.758690 25.295454 0.035977 0.451692 -26.626173 -0.768599 0.394326 1.378742 -15.056705 -13.748069 -9.603677 0.000000 0.000000 0.000000 -10.626541 -8.457161 -4.931913 7.786370 32.076057 -22.836878 27.921186 -27.613126 -15.321599 -39.000966 28.888535 96.341297 0.000000 0.000000 0.000000 0.000000 0.000000 0.000000 16.935015 -6.483630 -14.489910 -7.755938 12.917027 4.496085 -29.918763 -37.535599 27.649756 27.504186 9.352761 -20.787859 0.000000 0.000000 0.000000 0.000000 0.000000 0.000000 -47.077894 14.995273 -23.486171 23.622640 7.271280 3.127347 -6.027131 11.723419 -14.328212 0.000000 0.000000 0.000000 -7.650100 21.229890 -25.996470 -2.313094 2.463445 2.675439 -13.646270 8.848678 -18.161308 0.000000 0.000000 0.000000
-3.759528 64.092279 355.857799 34.291891 8.133455 26.631739 0.246963 0.371398 -28.034594 -0.622182 0.360253 1.386101 -17.528741 -12.924252 -8.950367 0.000000 0.000000 0.000000 -10.239039 -8.841825 -4.828667 8.274143 32.738953 -23.282872 24.920048 -25.517358 -13.849645 -32.902068 22.607806 87.533734 0.000000 0.000000 0.000000 0.000000 0.000000 0.000000 17.473854 -4.674068 -15.064379 -6.537812 11.466745 4.252679 -31.707582 -35.058649 24.509485 29.620732 7.350253 -17.821789 0.000000 0.000000 0.000000 0.000000 0.000000 0.000000 -42.591278 15.513666 -25.246263 20.366166 5.303520 3.142135 -5.521610 11.022169 -13.937430 0.000000 0.000000 0.000000 -4.456954 19.154983 -28.196713 -2.751562 2.799969 3.464136 -9.547976 9.668081 -21.366995 0.000000 0.000000 0.000000
-5.548026 65.139845 356.532842 33.041172 8.477300 33.029680 0.450133 0.072141 -34.409542 -0.313303 0.315650 1.404668 -19.699617 -11.575247 -8.039469 0.000000 0.000000 0.000000 -9.578700 -9.022368 -4.705850 6.110458 31.286376 -21.341230 9.086017 -18.128629 -7.254633 -16.383673 17.352444 67.874255 0.000000 0.000000 0.000000 0.000000 0.000000 0.000000 19.455226 -1.401823 -16.500156 -10.712985 5.517749 6.457816 -30.560726 -24.220972 15.000380 30.617188 3.717148 -6.923807 0.000000 0.000000 0.000000 0.000000 0.000000 0.000000 -35.946058 19.877357 -31.342171 18.196524 2.223967 3.441583 -5.186735 9.948390 -13.856632 0.000000 0.000000 0.000000 1.947628 15.982007 -35.791373 -4.232537 2.220026 4.262805 -8.868292 12.505290 -23.689364 0.000000 0.000000 0.000000
-7.486309 65.749770 357.268548 31.586294 8.658928 40.334319 0.555922 -0.273736 -41.625644 0.023222 0.306823 1.407630 -20.454114 -9.494063 -6.749781 0.000000 0.000000 0.000000 -8.721018 -9.054841 -4.569786 6.302386 30.842717 -21.497058 6.596785 -13.423444 -6.379413 -13.155394 14.129527 65.660195 0.000000 0.000000 0.000000 0.000000 0.000000 0.000000 21.434614 0.484538 -17.399544 -12.486836 2.194433 8.056110 -33.564275 -16.635707 4.732315 33.571382 2.308346 4.334844 0.000000 0.000000 0.000000 0.000000 0.000000 0.000000 -26.623526 23.468135 -39.474442 14.238488 -1.895645 3.422365 -6.573903 9.254044 -12.645389 0.000000 0.000000 0.000000 8.095667 10.731496 -43.807761 -6.556967 2.930151 5.229333 -4.401557 13.777516 -27.918450 0.000000 0.000000 0.000000
